<?xml version="1.0"?>
<svg width="128" height="128" xmlns="http://www.w3.org/2000/svg" xmlns:svg="http://www.w3.org/2000/svg">
 <g class="layer">
  <title>Layer 1</title>
  <path d="m89.234,5.856l-7.384,0l7.679,8.333l0,3.967l-15.816,0l0,-4.645l7.678,0l-7.678,-8.333l0,-3.971l15.521,0l0,4.649zm-18.657,0l-7.384,0l7.679,8.333l0,3.967l-15.817,0l0,-4.645l7.679,0l-7.679,-8.333l0,-3.971l15.522,0l0,4.649zm-18.474,0.19l-7.968,0l0,7.271l7.968,0l0,4.839l-13.632,0l0,-16.949l13.632,0l0,4.839z" fill="#ffffff" id="svg_1"/>
  <path d="m27.613,116.706l-8.097,-90.813l88.967,0l-8.104,90.798l-36.434,10.102l-36.332,-10.087z" fill="#1572B6" id="svg_2"/>
  <path d="m64.001,119.072l29.439,-8.162l6.926,-77.591l-36.365,0l0,85.753z" fill="#33A9DC" id="svg_3"/>
  <path d="m64,66.22l14.738,0l1.019,-11.405l-15.757,0l0,-11.138l27.929,0l-0.267,2.988l-2.737,30.692l-24.925,0l0,-11.137z" fill="#fff" id="svg_4"/>
  <path d="m64.067,95.146l-0.049,0.014l-12.404,-3.35l-0.794,-8.883l-11.179,0l1.561,17.488l22.814,6.333l0.052,-0.015l0,-11.587l-0.001,0z" fill="#EBEBEB" id="svg_5"/>
  <path d="m77.792,76.886l-1.342,14.916l-12.422,3.353l0,11.588l22.833,-6.328l0.168,-1.882l1.938,-21.647l-11.175,0z" fill="#fff" id="svg_6"/>
  <path d="m64.039,43.677l0,11.137l-26.903,0l-0.224,-2.503l-0.507,-5.646l-0.267,-2.988l27.901,0zm-0.039,22.544l0,11.138l-12.247,0l-0.223,-2.503l-0.508,-5.647l-0.267,-2.988l13.245,0z" fill="#EBEBEB" id="svg_7"/>
 </g>
</svg>