<svg width="250" height="250" xmlns="http://www.w3.org/2000/svg">
 <g>
  <title>background</title>
  <rect x="-1" y="-1" width="252" height="252" id="canvas_background" fill="none"/>
 </g>

 <g>
  <title>Layer 1</title>
  <g stroke="null" id="svg_1">
   <path stroke="null" d="m232.808547,67.327516c-11.157548,-18.75409 -26.29205,-33.60173 -45.407488,-44.546267c-19.118284,-10.945096 -39.98975,-16.416249 -62.629193,-16.416249c-22.636599,0 -43.514893,5.472827 -62.629193,16.416249c-19.117145,10.94398 -34.251078,25.792177 -45.408626,44.546267c-11.155841,18.753532 -16.734046,39.232534 -16.734046,61.436448c0,26.671938 7.932284,50.656028 23.800835,71.95841c15.866844,21.304057 36.364457,36.045634 61.491133,44.226405c2.924816,0.532546 5.089977,0.157977 6.497758,-1.114215c1.40835,-1.273867 2.111672,-2.869271 2.111672,-4.779513c0,-0.318746 -0.027882,-3.186342 -0.08194,-8.606138c-0.055765,-5.419796 -0.08194,-10.147952 -0.08194,-14.182236l-3.736823,0.634142c-2.38253,0.428158 -5.388149,0.609581 -9.016856,0.558224c-3.627,-0.049682 -7.392274,-0.422575 -11.290701,-1.11589c-3.900134,-0.687174 -7.527703,-2.280903 -10.885552,-4.777838c-3.356141,-2.496936 -5.738672,-5.765336 -7.147022,-9.800179l-1.624582,-3.667531c-1.082865,-2.441671 -2.78768,-5.154081 -5.116721,-8.127182c-2.329041,-2.975892 -4.684258,-4.993313 -7.066789,-6.055613l-1.137492,-0.798818c-0.757948,-0.530871 -1.46127,-1.171154 -2.111672,-1.91415c-0.649833,-0.742996 -1.136354,-1.48655 -1.46127,-2.231221c-0.325485,-0.745229 -0.055765,-1.356484 0.812006,-1.835998c0.867771,-0.479514 2.436019,-0.712294 4.711572,-0.712294l3.248026,0.476165c2.166299,0.425925 4.845863,1.698117 8.042107,3.824392c3.194537,2.1246 5.820612,4.886692 7.878795,8.285159c2.492353,4.357496 5.495127,7.677812 9.016856,9.962622c3.518884,2.28481 7.066789,3.425262 10.6403,3.425262c3.573511,0 6.659932,-0.265715 9.260401,-0.794353c2.597624,-0.531429 5.034781,-1.330248 7.310334,-2.391989c0.974749,-7.121821 3.628707,-12.592973 7.959597,-16.417365c-6.172842,-0.636375 -11.722595,-1.594846 -16.652106,-2.869271c-4.926665,-1.2761 -10.01778,-3.347111 -15.269931,-6.218614c-5.254996,-2.867596 -9.614338,-6.428506 -13.079164,-10.67659c-3.465395,-4.250317 -6.309409,-9.830323 -8.528059,-16.734994c-2.219788,-6.907463 -3.329966,-14.875551 -3.329966,-23.906497c0,-12.858688 4.279109,-23.800993 12.835619,-32.833055c-4.00825,-9.667322 -3.629845,-20.50468 1.136354,-32.51096c3.141048,-0.957354 7.799131,-0.23892 13.971973,2.150837c6.17398,2.390873 10.694357,4.438996 13.565685,6.137114c2.871327,1.697559 5.171917,3.136102 6.905184,4.30279c10.074683,-2.761534 20.471438,-4.14258 31.193109,-4.14258s21.120702,1.381046 31.195954,4.14258l6.173411,-3.823276c4.221637,-2.551083 9.206912,-4.888925 14.943876,-7.014083c5.740379,-2.124042 10.129879,-2.709061 13.163949,-1.751707c4.872038,12.006838 5.306209,22.843639 1.29682,32.51096c8.555941,9.032063 12.836757,19.977159 12.836757,32.833055c0,9.030946 -1.114162,17.024154 -3.330535,23.984648c-2.219219,6.96161 -5.087701,12.536034 -8.606585,16.734994c-3.522867,4.198402 -7.910092,7.731401 -13.162242,10.598439c-5.253289,2.869271 -10.346111,4.940282 -15.272776,6.216381c-4.928941,1.2761 -10.478695,2.235129 -16.651537,2.87262c5.629987,4.779513 8.445549,12.323909 8.445549,22.629839l0,33.625733c0,1.910242 0.677146,3.505088 2.032577,4.779513c1.353723,1.272192 3.491571,1.646761 6.416387,1.113657c25.13009,-8.179655 45.627703,-22.92179 61.493978,-44.225847c15.864568,-21.302382 23.799697,-45.286472 23.799697,-71.95841c-0.00569,-22.201123 -5.586741,-42.67845 -16.73746,-61.431982z" id="svg_2" fill="#252525"/>
  </g>
  <g id="svg_3"/>
  <g id="svg_4"/>
  <g id="svg_5"/>
  <g id="svg_6"/>
  <g id="svg_7"/>
  <g id="svg_8"/>
  <g id="svg_9"/>
  <g id="svg_10"/>
  <g id="svg_11"/>
  <g id="svg_12"/>
  <g id="svg_13"/>
  <g id="svg_14"/>
  <g id="svg_15"/>
  <g id="svg_16"/>
  <g id="svg_17"/>
 </g>
</svg>