<svg width="48" height="48" xmlns="http://www.w3.org/2000/svg">

 <g>
  <title>background</title>
  <rect fill="none" id="canvas_background" height="402" width="582" y="-1" x="-1"/>
 </g>
 <g>
  <title>Layer 1</title>
  <path id="svg_1" fill="#ffb800" d="m24,0c-13.2548,0 -24,10.7452 -24,24c0,13.2548 10.7452,24 24,24c13.2548,0 24,-10.7452 24,-24c0,-13.2548 -10.7452,-24 -24,-24zm-0.0361,26.0193l-8.9652,-6.5078l0,13.7185l-1.4978,0c-0.8345,0 -1.4978,-0.6633 -1.4978,-1.4978l0,-15.1702c0,-0.0635 0.0039,-0.1231 0.0113,-0.1789c0.0272,-0.238 0.114,-0.4709 0.2669,-0.677c0.4921,-0.6633 1.455,-0.8131 2.1397,-0.321l9.5643,6.954l9.6285,-7.0395c0.6633,-0.4922 1.6048,-0.3424 2.0969,0.3423c0.2616,0.3526 0.3418,0.7837 0.2567,1.1842l0,14.9275c0,0.8131 -0.6633,1.4764 -1.4977,1.4764l-1.4978,0l0,-13.7512l-9.008,6.5405z" clip-rule="evenodd" fill-rule="evenodd"/>
 </g>
</svg>