<?xml version="1.0"?>
<svg width="512" height="512" xmlns="http://www.w3.org/2000/svg" xmlns:svg="http://www.w3.org/2000/svg">
 <title>HTML5 Logo</title>
 <g class="layer">
  <title>Layer 1</title>
  <path d="m108.4,0l23,0l0,22.8l21.2,0l0,-22.8l23,0l0,69l-23,0l0,-23l-21,0l0,23l-23.2,0m97.6,-46l-20.3,0l0,-23l63.7,0l0,23l-20.4,0l0,46l-23,0m53.5,-69l24.1,0l14.8,24.3l14.8,-24.3l24.1,0l0,69l-23,0l0,-34.2l-16.1,24.8l-16.1,-24.8l0,34.2l-22.6,0m89.2,-69l23,0l0,46.2l32.6,0l0,22.8l-55.6,0" fill="#ffffff" id="svg_1"/>
  <path d="m107.6,471l-33,-370.4l362.8,0l-33,370.2l-148.7,41.2" fill="#e44d26" id="svg_2"/>
  <path d="m256,480.5l0,-349.5l148.3,0l-28.3,316" fill="#f16529" id="svg_3"/>
  <path d="m142,176.3l114,0l0,45.4l-64.2,0l4.2,46.5l60,0l0,45.3l-101.6,0m2,22.8l45.6,0l3.2,36.3l50.8,13.6l0,47.4l-93.2,-26" fill="#ebebeb" id="svg_4"/>
  <path d="m369.6,176.3l-113.8,0l0,45.4l109.6,0m-4.1,46.5l-105.5,0l0,45.4l56,0l-5.3,59l-50.7,13.6l0,47.2l93,-25.8" fill="#fff" id="svg_5"/>
 </g>
</svg>