<svg width="64" height="64" xmlns="http://www.w3.org/2000/svg">
 <g>
  <title>background</title>
  <rect x="-1" y="-1" width="6" height="6" id="canvas_background" fill="none"/>
 </g>

 <g>
  <title>Layer 1</title>
  <g id="svg_1">
   <path d="m37.407689,27.222c-2.580372,0 -3.735708,1.321996 -4.380801,2.25011l0,-1.928665l-4.861888,0c0.063173,1.276722 0,13.628556 0,13.628556l4.861888,0l0,-7.612795c0,-0.407464 0.030372,-0.814929 0.159147,-1.104682c0.352311,-0.814929 1.151692,-1.658154 2.495332,-1.658154c1.759124,0 2.46253,1.25069 2.46253,3.082016l0,7.292483l4.861888,0l0.001215,0l0,-7.816527c0,-4.184434 -2.399357,-6.132341 -5.59931,-6.132341l-0.000001,-0.000001zm-4.382016,2.297647l-0.031586,0c0.010934,-0.015846 0.023082,-0.03056 0.031586,-0.046406l0,0.046406z" id="svg_2" fill="#ffb800" stroke="null"/>
   <rect height="13.541001" width="4.877" x="21.322" y="27.506" id="svg_3" fill="#ffb800" stroke="null"/>
   <path d="m31.999999,0.174c-17.61771,0 -31.951002,14.249178 -31.951002,31.763499c0,17.514321 14.333292,31.763499 31.951002,31.763499c17.61771,0 31.951002,-14.249178 31.951002,-31.763499c0,-17.514321 -14.333292,-31.763499 -31.951002,-31.763499zm16.943323,46.130386c0,1.348535 -1.12741,2.44374 -2.521228,2.44374l-29.061692,0c-1.389957,0 -2.518654,-1.093925 -2.518654,-2.44374l0,-29.227639c0,-1.349814 1.128697,-2.44374 2.518654,-2.44374l29.061692,0c1.392531,0 2.521228,1.095205 2.521228,2.44374l0,29.227639z" id="svg_4" fill="#ffb800" stroke="null"/>
   <path d="m23.540027,20.701c-1.633882,0 -2.704027,1.113865 -2.704027,2.58c0,1.432644 1.037897,2.58 2.640726,2.58l0.031053,0c1.667324,0 2.705221,-1.147356 2.705221,-2.58c-0.032248,-1.464894 -1.036703,-2.58 -2.672973,-2.58z" id="svg_5" fill="#ffb800" stroke="null"/>
  </g>
 </g>
</svg>