<svg width="144.083" height="144" xmlns="http://www.w3.org/2000/svg">
 <g>
  <title>background</title>
  <rect x="-1" y="-1" width="146.083" height="146" id="canvas_background" fill="none"/>
 </g>

 <g>
  <title>Layer 1</title>
  <path d="m72.039776,1.666006c-39.119514,0 -70.832776,31.378687 -70.832776,70.083996c0,38.704097 31.713262,70.083996 70.832776,70.083996c39.120739,0 70.835226,-31.379899 70.835226,-70.083996c0,-38.705309 -31.714487,-70.083996 -70.835226,-70.083996zm18.889802,112.375059c-4.31123,0 -8.334637,-1.194848 -11.76035,-3.267048c-2.298914,0.407169 -4.662742,0.630143 -7.079236,0.630143c-22.086481,0 -39.990334,-17.713071 -39.990334,-39.564484c0,-2.999237 0.347838,-5.914859 0.985949,-8.721418c-1.979247,-3.32158 -3.119518,-7.190899 -3.119518,-11.325605c0,-12.335045 10.10567,-22.333714 22.571494,-22.333714c4.466777,0 8.627359,1.289369 12.131459,3.505775c2.40547,-0.447159 4.883203,-0.690733 7.419725,-0.690733c22.085256,0 39.987884,17.713071 39.987884,39.565696c0,3.271895 -0.409077,6.448057 -1.164767,9.487284c1.651005,3.104665 2.587963,6.633465 2.587963,10.381602c0.00245,12.332621 -10.104446,22.332503 -22.57027,22.332503l0.000001,-0.000001z" id="svg_1" fill="#ffb800" stroke="null"/>
  <path d="m88.354669,72.440677c-1.66261,-1.081819 -3.681316,-2.001935 -6.051156,-2.760347c-2.37108,-0.758412 -5.020089,-1.450777 -7.944546,-2.079371c-2.336339,-0.54091 -4.011357,-0.952001 -5.025052,-1.233274c-1.014936,-0.281273 -2.017465,-0.671867 -3.007587,-1.169504c-0.991362,-0.498776 -1.769315,-1.093207 -2.336339,-1.785571c-0.565784,-0.692364 -0.849916,-1.515686 -0.849916,-2.468826c0,-1.537322 0.831305,-2.852587 2.495156,-3.946932c1.66261,-1.093207 3.851299,-1.638672 6.564828,-1.638672c2.925697,0 5.048627,0.502192 6.370029,1.509992c1.320162,1.006661 2.454211,2.408471 3.397184,4.20543c0.732045,1.256049 1.410737,2.159084 2.036077,2.71252c0.62534,0.551158 1.538535,0.827876 2.742066,0.827876c1.321403,0 2.424433,-0.458919 3.30909,-1.380174c0.884657,-0.920116 1.325125,-1.954107 1.325125,-3.101975c0,-1.256049 -0.353615,-2.543984 -1.060844,-3.866081c-0.705989,-1.31982 -1.82763,-2.582701 -3.361202,-3.782951c-1.533572,-1.202528 -3.462943,-2.164777 -5.785634,-2.891304c-2.323932,-0.725388 -5.078405,-1.087513 -8.263419,-1.087513c-3.987782,0 -7.455689,0.546603 -10.40496,1.63981c-2.949271,1.093207 -5.20248,2.657859 -6.759626,4.692818c-1.557146,2.036098 -2.335098,4.363717 -2.335098,6.983998c0,2.750099 0.737008,5.050388 2.212264,6.902007c1.474015,1.851619 3.467906,3.312645 5.980433,4.385354c2.512526,1.071571 5.633022,2.008768 9.360246,2.809314c2.78301,0.585321 5.007682,1.13648 6.670292,1.656892c1.663851,0.519273 3.019994,1.271992 4.069672,2.257017s1.575757,2.268404 1.575757,3.848999c0,1.991686 -0.972751,3.653133 -2.919493,4.985479c-1.946743,1.331207 -4.47788,1.99738 -7.592172,1.99738c-2.265616,0 -4.093246,-0.33024 -5.485372,-0.990719c-1.392126,-0.65934 -2.471581,-1.498604 -3.238367,-2.516653c-0.766786,-1.018049 -1.480219,-2.284347 -2.141541,-3.800033c-0.54345,-1.277686 -1.197327,-2.242213 -1.964113,-2.891304c-0.766786,-0.649092 -1.704796,-0.973637 -2.814029,-0.973637c-1.368551,0 -2.495156,0.416785 -3.379813,1.250355c-0.884657,0.83357 -1.327606,1.835677 -1.327606,3.00518c0,2.014461 0.737008,4.088138 2.212264,6.219892c1.474015,2.132892 3.39098,3.83875 5.750893,5.115297c3.326461,1.776461 7.548745,2.663553 12.669336,2.663553c4.269433,0 7.963157,-0.649092 11.077449,-1.948414c3.114292,-1.300461 5.479168,-3.096281 7.09587,-5.392015c1.614221,-2.294596 2.423192,-4.881852 2.423192,-7.761769c0,-2.402778 -0.465283,-4.43432 -1.398329,-6.090073c-0.931806,-1.659169 -2.227153,-3.027955 -3.891003,-4.112052l-0.000006,0.000001z" id="svg_2" fill="#ffb800" stroke="null"/>
 </g>
</svg>