<svg width="32" height="32" xmlns="http://www.w3.org/2000/svg">

 <g>
  <title>background</title>
  <rect fill="none" id="canvas_background" height="440.549" width="440.549" y="-1" x="-1"/>
 </g>
 <g>
  <title>Layer 1</title>
  <path fill="#ffb800" id="svg_1" d="m16,0.5c-8.563,0 -15.5,6.938 -15.5,15.5s6.938,15.5 15.5,15.5c8.563,0 15.5,-6.938 15.5,-15.5s-6.938,-15.5 -15.5,-15.5zm7.613,10.619l-2.544,11.988c-0.188,0.85 -0.694,1.056 -1.4,0.656l-3.875,-2.856l-1.869,1.8c-0.206,0.206 -0.381,0.381 -0.781,0.381l0.275,-3.944l7.181,-6.488c0.313,-0.275 -0.069,-0.431 -0.482,-0.156l-8.875,5.587l-3.825,-1.194c-0.831,-0.262 -0.85,-0.831 0.175,-1.231l14.944,-5.763c0.694,-0.25 1.3,0.169 1.075,1.219l0.001,0.001z"/>
 </g>
</svg>